<svg xmlns="http://www.w3.org/2000/svg" x="0px" y="0px" width="100" height="100" viewBox="0,0,256,256">
<g fill="#9ca2af" fill-rule="nonzero" stroke="none" stroke-width="1" stroke-linecap="butt" stroke-linejoin="miter" stroke-miterlimit="10" stroke-dasharray="" stroke-dashoffset="0" font-family="none" font-weight="none" font-size="none" text-anchor="none" style="mix-blend-mode: normal"><g transform="scale(10.66667,10.66667)"><path d="M12.03125,1.5c-0.18919,-0.00572 -0.37612,0.04237 -0.53906,0.13867l-9.5,5.58789c-0.3209,0.17379 -0.52166,0.50857 -0.52381,0.8735c-0.00216,0.36493 0.19463,0.70206 0.51345,0.87963c0.31882,0.17757 0.70905,0.16739 1.01817,-0.02657v11.04688c0.00006,0.55226 0.44774,0.99994 1,1h16c0.55226,-0.00006 0.99994,-0.44774 1,-1v-11.04687c0.30912,0.19396 0.69936,0.20415 1.01818,0.02657c0.31882,-0.17757 0.51561,-0.5147 0.51345,-0.87963c-0.00216,-0.36493 -0.20292,-0.69971 -0.52382,-0.8735l-9.5,-5.58789c-0.14468,-0.08553 -0.30858,-0.13323 -0.47656,-0.13867zM12,3.66016l7,4.11719v11.22266h-3v-7c-0.00006,-0.55226 -0.44774,-0.99994 -1,-1h-6c-0.55226,0.00006 -0.99994,0.44774 -1,1v7h-3v-11.22266zM10,13h4v6h-4z"></path></g></g>
</svg>