<svg width="30" height="20" viewBox="0 0 20 20" fill="none" xmlns="http://www.w3.org/2000/svg">
<path d="M28.52 26.8947H33M3.98667 16L1 16.0733M3.98667 16C3.98667 18.2092 5.89691 20 8.25333 20C10.6097 20 12.52 18.2092 12.52 16C12.52 13.7908 10.6097 12 8.25333 12C5.89691 12 3.98667 13.7908 3.98667 16ZM13.7449 16.0735H33M18.424 5.25207H1M33 5.25207H28.52M1 26.8947H18.424M27.4533 27C27.4533 29.2092 25.5431 31 23.1867 31C20.8302 31 18.92 29.2092 18.92 27C18.92 24.7908 20.8302 23 23.1867 23C25.5431 23 27.4533 24.7908 27.4533 27ZM27.4533 5C27.4533 7.20913 25.5431 9 23.1867 9C20.8302 9 18.92 7.20913 18.92 5C18.92 2.79087 20.8302 1 23.1867 1C25.5431 1 27.4533 2.79087 27.4533 5Z" stroke="white" stroke-width="2" stroke-linecap="round"/>
</svg>
